<svg id="g1" xmlns="http://www.w3.org/2000/svg" version="1.1" viewBox="0 0 1630 4320" fill="none">
  <defs id="g2">
    <linearGradient id="gr" x2="333.3%" gradientUnits="objectBoundingBox">
      <stop offset="0" stop-color="var(--cs1)"/>
      <stop offset=".2" stop-color="var(--cs2)"/>
      <stop offset=".4" stop-color="var(--cs3)"/>
      <stop offset=".6" stop-color="var(--cs1)"/>
      <stop offset=".8" stop-color="var(--cs2)"/>
      <stop offset="1" stop-color="var(--cs3)"/>
    </linearGradient>
    <linearGradient id="gr2" x2="333.3%" gradientUnits="objectBoundingBox">
      <stop offset="0" stop-color="var(--cs1)"/>
      <stop offset=".2" stop-color="var(--cs3)"/>
      <stop offset=".4" stop-color="var(--cs2)"/>
      <stop offset=".6" stop-color="var(--cs1)"/>
      <stop offset=".8" stop-color="var(--cs3)"/>
      <stop offset="1" stop-color="var(--cs2)"/>
    </linearGradient>

    <symbol id="symb1">
      <path d="M829.574 556.114c222.289 0 402.488-180.199 402.491-402.485-0.01-222.285 0 0-246.595 126.552-246.595 126.551-558.378-348.837-558.378-126.551 0 222.286 180.198 402.484 402.482 402.484z" pathLength="100"></path>
      <path d="M829.574 556.114c222.289 0 402.488-180.199 402.491-402.485-0.01-222.285 0 0-246.595 126.552-246.595 126.551-558.378-348.837-558.378-126.551 0 222.286 180.198 402.484 402.482 402.484z" pathLength="100"></path>
    </symbol>
    <style type="text/css">
      svg {
        --c1: #0A81D1;
        --c2: #781EDC;
        --c3: #F25F5C;
        --cs1: var(--c1);
        --cs2: var(--c2);
        --cs3: var(--c3);
      }
      #g1:target  {
        --cs1: var(--c2);
        --cs2: var(--c3);
        --cs3: var(--c1);
      }
      #g2:target  {
        --cs1: var(--c3);
        --cs2: var(--c1);
        --cs3: var(--c2);
      }

      #symb1 path:first-child {
        stroke-dashoffset: 23;
        stroke-dasharray: 53.6, 44;
        stroke: url(#gr);
      }
      #symb1 path:last-child {
        stroke-dasharray: 44, 77;
        stroke-dashoffset: -30.6;
        stroke: url(#gr2);
      }
    </style>
  </defs>
  <g transform="rotate(9.5)" transform-origin="829 2230" opacity="0.62">
    <use href="#symb1" transform="rotate(0) translate(0 0)" transform-origin="829 300" opacity="1"></use>
    <use href="#symb1" transform="rotate(2) translate(0 18)" transform-origin="829 318" opacity="0.995"></use>
    <use href="#symb1" transform="rotate(4) translate(0 36)" transform-origin="829 336" opacity="0.99"></use>
    <use href="#symb1" transform="rotate(6) translate(0 54)" transform-origin="829 354" opacity="0.985"></use>
    <use href="#symb1" transform="rotate(8) translate(0 72)" transform-origin="829 372" opacity="0.98"></use>
    <use href="#symb1" transform="rotate(10) translate(0 90)" transform-origin="829 390" opacity="0.975"></use>
    <use href="#symb1" transform="rotate(12) translate(0 108)" transform-origin="829 408" opacity="0.97"></use>
    <use href="#symb1" transform="rotate(14) translate(0 126)" transform-origin="829 426" opacity="0.965"></use>
    <use href="#symb1" transform="rotate(16) translate(0 144)" transform-origin="829 444" opacity="0.96"></use>
    <use href="#symb1" transform="rotate(18) translate(0 162)" transform-origin="829 462" opacity="0.955"></use>
    <use href="#symb1" transform="rotate(20) translate(0 180)" transform-origin="829 480" opacity="0.95"></use>
    <use href="#symb1" transform="rotate(22) translate(0 198)" transform-origin="829 498" opacity="0.945"></use>
    <use href="#symb1" transform="rotate(24) translate(0 216)" transform-origin="829 516" opacity="0.94"></use>
    <use href="#symb1" transform="rotate(26) translate(0 234)" transform-origin="829 534" opacity="0.935"></use>
    <use href="#symb1" transform="rotate(28) translate(0 252)" transform-origin="829 552" opacity="0.93"></use>
    <use href="#symb1" transform="rotate(30) translate(0 270)" transform-origin="829 570" opacity="0.925"></use>
    <use href="#symb1" transform="rotate(32) translate(0 288)" transform-origin="829 588" opacity="0.92"></use>
    <use href="#symb1" transform="rotate(34) translate(0 306)" transform-origin="829 606" opacity="0.915"></use>
    <use href="#symb1" transform="rotate(36) translate(0 324)" transform-origin="829 624" opacity="0.91"></use>
    <use href="#symb1" transform="rotate(38) translate(0 342)" transform-origin="829 642" opacity="0.905"></use>
    <use href="#symb1" transform="rotate(40) translate(0 360)" transform-origin="829 660" opacity="0.9"></use>
    <use href="#symb1" transform="rotate(42) translate(0 378)" transform-origin="829 678" opacity="0.895"></use>
    <use href="#symb1" transform="rotate(44) translate(0 396)" transform-origin="829 696" opacity="0.89"></use>
    <use href="#symb1" transform="rotate(46) translate(0 414)" transform-origin="829 714" opacity="0.885"></use>
    <use href="#symb1" transform="rotate(48) translate(0 432)" transform-origin="829 732" opacity="0.88"></use>
    <use href="#symb1" transform="rotate(50) translate(0 450)" transform-origin="829 750" opacity="0.875"></use>
    <use href="#symb1" transform="rotate(52) translate(0 468)" transform-origin="829 768" opacity="0.87"></use>
    <use href="#symb1" transform="rotate(54) translate(0 486)" transform-origin="829 786" opacity="0.865"></use>
    <use href="#symb1" transform="rotate(56) translate(0 504)" transform-origin="829 804" opacity="0.86"></use>
    <use href="#symb1" transform="rotate(58) translate(0 522)" transform-origin="829 822" opacity="0.855"></use>
    <use href="#symb1" transform="rotate(60) translate(0 540)" transform-origin="829 840" opacity="0.85"></use>
    <use href="#symb1" transform="rotate(62) translate(0 558)" transform-origin="829 858" opacity="0.845"></use>
    <use href="#symb1" transform="rotate(64) translate(0 576)" transform-origin="829 876" opacity="0.84"></use>
    <use href="#symb1" transform="rotate(66) translate(0 594)" transform-origin="829 894" opacity="0.835"></use>
    <use href="#symb1" transform="rotate(68) translate(0 612)" transform-origin="829 912" opacity="0.83"></use>
    <use href="#symb1" transform="rotate(70) translate(0 630)" transform-origin="829 930" opacity="0.825"></use>
    <use href="#symb1" transform="rotate(72) translate(0 648)" transform-origin="829 948" opacity="0.82"></use>
    <use href="#symb1" transform="rotate(74) translate(0 666)" transform-origin="829 966" opacity="0.815"></use>
    <use href="#symb1" transform="rotate(76) translate(0 684)" transform-origin="829 984" opacity="0.81"></use>
    <use href="#symb1" transform="rotate(78) translate(0 702)" transform-origin="829 1002" opacity="0.805"></use>
    <use href="#symb1" transform="rotate(80) translate(0 720)" transform-origin="829 1020" opacity="0.8"></use>
    <use href="#symb1" transform="rotate(82) translate(0 738)" transform-origin="829 1038" opacity="0.795"></use>
    <use href="#symb1" transform="rotate(84) translate(0 756)" transform-origin="829 1056" opacity="0.79"></use>
    <use href="#symb1" transform="rotate(86) translate(0 774)" transform-origin="829 1074" opacity="0.785"></use>
    <use href="#symb1" transform="rotate(88) translate(0 792)" transform-origin="829 1092" opacity="0.78"></use>
    <use href="#symb1" transform="rotate(90) translate(0 810)" transform-origin="829 1110" opacity="0.775"></use>
    <use href="#symb1" transform="rotate(92) translate(0 828)" transform-origin="829 1128" opacity="0.77"></use>
    <use href="#symb1" transform="rotate(94) translate(0 846)" transform-origin="829 1146" opacity="0.765"></use>
    <use href="#symb1" transform="rotate(96) translate(0 864)" transform-origin="829 1164" opacity="0.76"></use>
    <use href="#symb1" transform="rotate(98) translate(0 882)" transform-origin="829 1182" opacity="0.755"></use>
    <use href="#symb1" transform="rotate(100) translate(0 900)" transform-origin="829 1200" opacity="0.75"></use>
    <use href="#symb1" transform="rotate(102) translate(0 918)" transform-origin="829 1218" opacity="0.745"></use>
    <use href="#symb1" transform="rotate(104) translate(0 936)" transform-origin="829 1236" opacity="0.74"></use>
    <use href="#symb1" transform="rotate(106) translate(0 954)" transform-origin="829 1254" opacity="0.735"></use>
    <use href="#symb1" transform="rotate(108) translate(0 972)" transform-origin="829 1272" opacity="0.73"></use>
    <use href="#symb1" transform="rotate(110) translate(0 990)" transform-origin="829 1290" opacity="0.725"></use>
    <use href="#symb1" transform="rotate(112) translate(0 1008)" transform-origin="829 1308" opacity="0.72"></use>
    <use href="#symb1" transform="rotate(114) translate(0 1026)" transform-origin="829 1326" opacity="0.715"></use>
    <use href="#symb1" transform="rotate(116) translate(0 1044)" transform-origin="829 1344" opacity="0.71"></use>
    <use href="#symb1" transform="rotate(118) translate(0 1062)" transform-origin="829 1362" opacity="0.705"></use>
    <use href="#symb1" transform="rotate(120) translate(0 1080)" transform-origin="829 1380" opacity="0.7"></use>
    <use href="#symb1" transform="rotate(122) translate(0 1098)" transform-origin="829 1398" opacity="0.695"></use>
    <use href="#symb1" transform="rotate(124) translate(0 1116)" transform-origin="829 1416" opacity="0.69"></use>
    <use href="#symb1" transform="rotate(126) translate(0 1134)" transform-origin="829 1434" opacity="0.685"></use>
    <use href="#symb1" transform="rotate(128) translate(0 1152)" transform-origin="829 1452" opacity="0.68"></use>
    <use href="#symb1" transform="rotate(130) translate(0 1170)" transform-origin="829 1470" opacity="0.675"></use>
    <use href="#symb1" transform="rotate(132) translate(0 1188)" transform-origin="829 1488" opacity="0.67"></use>
    <use href="#symb1" transform="rotate(134) translate(0 1206)" transform-origin="829 1506" opacity="0.665"></use>
    <use href="#symb1" transform="rotate(136) translate(0 1224)" transform-origin="829 1524" opacity="0.66"></use>
    <use href="#symb1" transform="rotate(138) translate(0 1242)" transform-origin="829 1542" opacity="0.655"></use>
    <use href="#symb1" transform="rotate(140) translate(0 1260)" transform-origin="829 1560" opacity="0.65"></use>
    <use href="#symb1" transform="rotate(142) translate(0 1278)" transform-origin="829 1578" opacity="0.645"></use>
    <use href="#symb1" transform="rotate(144) translate(0 1296)" transform-origin="829 1596" opacity="0.64"></use>
    <use href="#symb1" transform="rotate(146) translate(0 1314)" transform-origin="829 1614" opacity="0.635"></use>
    <use href="#symb1" transform="rotate(148) translate(0 1332)" transform-origin="829 1632" opacity="0.63"></use>
    <use href="#symb1" transform="rotate(150) translate(0 1350)" transform-origin="829 1650" opacity="0.625"></use>
    <use href="#symb1" transform="rotate(152) translate(0 1368)" transform-origin="829 1668" opacity="0.62"></use>
    <use href="#symb1" transform="rotate(154) translate(0 1386)" transform-origin="829 1686" opacity="0.615"></use>
    <use href="#symb1" transform="rotate(156) translate(0 1404)" transform-origin="829 1704" opacity="0.61"></use>
    <use href="#symb1" transform="rotate(158) translate(0 1422)" transform-origin="829 1722" opacity="0.605"></use>
    <use href="#symb1" transform="rotate(160) translate(0 1440)" transform-origin="829 1740" opacity="0.6"></use>
    <use href="#symb1" transform="rotate(162) translate(0 1458)" transform-origin="829 1758" opacity="0.595"></use>
    <use href="#symb1" transform="rotate(164) translate(0 1476)" transform-origin="829 1776" opacity="0.59"></use>
    <use href="#symb1" transform="rotate(166) translate(0 1494)" transform-origin="829 1794" opacity="0.585"></use>
    <use href="#symb1" transform="rotate(168) translate(0 1512)" transform-origin="829 1812" opacity="0.58"></use>
    <use href="#symb1" transform="rotate(170) translate(0 1530)" transform-origin="829 1830" opacity="0.575"></use>
    <use href="#symb1" transform="rotate(172) translate(0 1548)" transform-origin="829 1848" opacity="0.57"></use>
    <use href="#symb1" transform="rotate(174) translate(0 1566)" transform-origin="829 1866" opacity="0.565"></use>
    <use href="#symb1" transform="rotate(176) translate(0 1584)" transform-origin="829 1884" opacity="0.56"></use>
    <use href="#symb1" transform="rotate(178) translate(0 1602)" transform-origin="829 1902" opacity="0.555"></use>
    <use href="#symb1" transform="rotate(180) translate(0 1620)" transform-origin="829 1920" opacity="0.55"></use>
    <use href="#symb1" transform="rotate(182) translate(0 1638)" transform-origin="829 1938" opacity="0.545"></use>
    <use href="#symb1" transform="rotate(184) translate(0 1656)" transform-origin="829 1956" opacity="0.54"></use>
    <use href="#symb1" transform="rotate(186) translate(0 1674)" transform-origin="829 1974" opacity="0.535"></use>
    <use href="#symb1" transform="rotate(188) translate(0 1692)" transform-origin="829 1992" opacity="0.53"></use>
    <use href="#symb1" transform="rotate(190) translate(0 1710)" transform-origin="829 2010" opacity="0.525"></use>
    <use href="#symb1" transform="rotate(192) translate(0 1728)" transform-origin="829 2028" opacity="0.52"></use>
    <use href="#symb1" transform="rotate(194) translate(0 1746)" transform-origin="829 2046" opacity="0.515"></use>
    <use href="#symb1" transform="rotate(196) translate(0 1764)" transform-origin="829 2064" opacity="0.51"></use>
    <use href="#symb1" transform="rotate(198) translate(0 1782)" transform-origin="829 2082" opacity="0.505"></use>
    <use href="#symb1" transform="rotate(200) translate(0 1800)" transform-origin="829 2100" opacity="0.5"></use>
    <use href="#symb1" transform="rotate(202) translate(0 1818)" transform-origin="829 2118" opacity="0.495"></use>
    <use href="#symb1" transform="rotate(204) translate(0 1836)" transform-origin="829 2136" opacity="0.49"></use>
    <use href="#symb1" transform="rotate(206) translate(0 1854)" transform-origin="829 2154" opacity="0.485"></use>
    <use href="#symb1" transform="rotate(208) translate(0 1872)" transform-origin="829 2172" opacity="0.48"></use>
    <use href="#symb1" transform="rotate(210) translate(0 1890)" transform-origin="829 2190" opacity="0.475"></use>
    <use href="#symb1" transform="rotate(212) translate(0 1908)" transform-origin="829 2208" opacity="0.47"></use>
    <use href="#symb1" transform="rotate(214) translate(0 1926)" transform-origin="829 2226" opacity="0.465"></use>
    <use href="#symb1" transform="rotate(216) translate(0 1944)" transform-origin="829 2244" opacity="0.46"></use>
    <use href="#symb1" transform="rotate(218) translate(0 1962)" transform-origin="829 2262" opacity="0.455"></use>
    <use href="#symb1" transform="rotate(220) translate(0 1980)" transform-origin="829 2280" opacity="0.45"></use>
    <use href="#symb1" transform="rotate(222) translate(0 1998)" transform-origin="829 2298" opacity="0.445"></use>
    <use href="#symb1" transform="rotate(224) translate(0 2016)" transform-origin="829 2316" opacity="0.44"></use>
    <use href="#symb1" transform="rotate(226) translate(0 2034)" transform-origin="829 2334" opacity="0.435"></use>
    <use href="#symb1" transform="rotate(228) translate(0 2052)" transform-origin="829 2352" opacity="0.43"></use>
    <use href="#symb1" transform="rotate(230) translate(0 2070)" transform-origin="829 2370" opacity="0.425"></use>
    <use href="#symb1" transform="rotate(232) translate(0 2088)" transform-origin="829 2388" opacity="0.42"></use>
    <use href="#symb1" transform="rotate(234) translate(0 2106)" transform-origin="829 2406" opacity="0.415"></use>
    <use href="#symb1" transform="rotate(236) translate(0 2124)" transform-origin="829 2424" opacity="0.41"></use>
    <use href="#symb1" transform="rotate(238) translate(0 2142)" transform-origin="829 2442" opacity="0.405"></use>
    <use href="#symb1" transform="rotate(240) translate(0 2160)" transform-origin="829 2460" opacity="0.4"></use>
    <use href="#symb1" transform="rotate(242) translate(0 2178)" transform-origin="829 2478" opacity="0.395"></use>
    <use href="#symb1" transform="rotate(244) translate(0 2196)" transform-origin="829 2496" opacity="0.39"></use>
    <use href="#symb1" transform="rotate(246) translate(0 2214)" transform-origin="829 2514" opacity="0.385"></use>
    <use href="#symb1" transform="rotate(248) translate(0 2232)" transform-origin="829 2532" opacity="0.38"></use>
    <use href="#symb1" transform="rotate(250) translate(0 2250)" transform-origin="829 2550" opacity="0.375"></use>
    <use href="#symb1" transform="rotate(252) translate(0 2268)" transform-origin="829 2568" opacity="0.37"></use>
    <use href="#symb1" transform="rotate(254) translate(0 2286)" transform-origin="829 2586" opacity="0.365"></use>
    <use href="#symb1" transform="rotate(256) translate(0 2304)" transform-origin="829 2604" opacity="0.36"></use>
    <use href="#symb1" transform="rotate(258) translate(0 2322)" transform-origin="829 2622" opacity="0.355"></use>
    <use href="#symb1" transform="rotate(260) translate(0 2340)" transform-origin="829 2640" opacity="0.35"></use>
    <use href="#symb1" transform="rotate(262) translate(0 2358)" transform-origin="829 2658" opacity="0.345"></use>
    <use href="#symb1" transform="rotate(264) translate(0 2376)" transform-origin="829 2676" opacity="0.34"></use>
    <use href="#symb1" transform="rotate(266) translate(0 2394)" transform-origin="829 2694" opacity="0.335"></use>
    <use href="#symb1" transform="rotate(268) translate(0 2412)" transform-origin="829 2712" opacity="0.33"></use>
    <use href="#symb1" transform="rotate(270) translate(0 2430)" transform-origin="829 2730" opacity="0.325"></use>
    <use href="#symb1" transform="rotate(272) translate(0 2448)" transform-origin="829 2748" opacity="0.32"></use>
    <use href="#symb1" transform="rotate(274) translate(0 2466)" transform-origin="829 2766" opacity="0.315"></use>
    <use href="#symb1" transform="rotate(276) translate(0 2484)" transform-origin="829 2784" opacity="0.31"></use>
    <use href="#symb1" transform="rotate(278) translate(0 2502)" transform-origin="829 2802" opacity="0.305"></use>
    <use href="#symb1" transform="rotate(280) translate(0 2520)" transform-origin="829 2820" opacity="0.3"></use>
    <use href="#symb1" transform="rotate(282) translate(0 2538)" transform-origin="829 2838" opacity="0.295"></use>
    <use href="#symb1" transform="rotate(284) translate(0 2556)" transform-origin="829 2856" opacity="0.29"></use>
    <use href="#symb1" transform="rotate(286) translate(0 2574)" transform-origin="829 2874" opacity="0.285"></use>
    <use href="#symb1" transform="rotate(288) translate(0 2592)" transform-origin="829 2892" opacity="0.28"></use>
    <use href="#symb1" transform="rotate(290) translate(0 2610)" transform-origin="829 2910" opacity="0.275"></use>
    <use href="#symb1" transform="rotate(292) translate(0 2628)" transform-origin="829 2928" opacity="0.27"></use>
    <use href="#symb1" transform="rotate(294) translate(0 2646)" transform-origin="829 2946" opacity="0.265"></use>
    <use href="#symb1" transform="rotate(296) translate(0 2664)" transform-origin="829 2964" opacity="0.26"></use>
    <use href="#symb1" transform="rotate(298) translate(0 2682)" transform-origin="829 2982" opacity="0.255"></use>
    <use href="#symb1" transform="rotate(300) translate(0 2700)" transform-origin="829 3000" opacity="0.25"></use>
    <use href="#symb1" transform="rotate(302) translate(0 2718)" transform-origin="829 3018" opacity="0.245"></use>
    <use href="#symb1" transform="rotate(304) translate(0 2736)" transform-origin="829 3036" opacity="0.24"></use>
    <use href="#symb1" transform="rotate(306) translate(0 2754)" transform-origin="829 3054" opacity="0.235"></use>
    <use href="#symb1" transform="rotate(308) translate(0 2772)" transform-origin="829 3072" opacity="0.23"></use>
    <use href="#symb1" transform="rotate(310) translate(0 2790)" transform-origin="829 3090" opacity="0.225"></use>
    <use href="#symb1" transform="rotate(312) translate(0 2808)" transform-origin="829 3108" opacity="0.22"></use>
    <use href="#symb1" transform="rotate(314) translate(0 2826)" transform-origin="829 3126" opacity="0.215"></use>
    <use href="#symb1" transform="rotate(316) translate(0 2844)" transform-origin="829 3144" opacity="0.21"></use>
    <use href="#symb1" transform="rotate(318) translate(0 2862)" transform-origin="829 3162" opacity="0.205"></use>
    <use href="#symb1" transform="rotate(320) translate(0 2880)" transform-origin="829 3180" opacity="0.2"></use>
    <use href="#symb1" transform="rotate(322) translate(0 2898)" transform-origin="829 3198" opacity="0.195"></use>
    <use href="#symb1" transform="rotate(324) translate(0 2916)" transform-origin="829 3216" opacity="0.19"></use>
    <use href="#symb1" transform="rotate(326) translate(0 2934)" transform-origin="829 3234" opacity="0.185"></use>
    <use href="#symb1" transform="rotate(328) translate(0 2952)" transform-origin="829 3252" opacity="0.18"></use>
    <use href="#symb1" transform="rotate(330) translate(0 2970)" transform-origin="829 3270" opacity="0.175"></use>
    <use href="#symb1" transform="rotate(332) translate(0 2988)" transform-origin="829 3288" opacity="0.17"></use>
    <use href="#symb1" transform="rotate(334) translate(0 3006)" transform-origin="829 3306" opacity="0.165"></use>
    <use href="#symb1" transform="rotate(336) translate(0 3024)" transform-origin="829 3324" opacity="0.16"></use>
    <use href="#symb1" transform="rotate(338) translate(0 3042)" transform-origin="829 3342" opacity="0.155"></use>
    <use href="#symb1" transform="rotate(340) translate(0 3060)" transform-origin="829 3360" opacity="0.15"></use>
    <use href="#symb1" transform="rotate(342) translate(0 3078)" transform-origin="829 3378" opacity="0.145"></use>
    <use href="#symb1" transform="rotate(344) translate(0 3096)" transform-origin="829 3396" opacity="0.14"></use>
    <use href="#symb1" transform="rotate(346) translate(0 3114)" transform-origin="829 3414" opacity="0.135"></use>
    <use href="#symb1" transform="rotate(348) translate(0 3132)" transform-origin="829 3432" opacity="0.13"></use>
    <use href="#symb1" transform="rotate(350) translate(0 3150)" transform-origin="829 3450" opacity="0.125"></use>
    <use href="#symb1" transform="rotate(352) translate(0 3168)" transform-origin="829 3468" opacity="0.12"></use>
    <use href="#symb1" transform="rotate(354) translate(0 3186)" transform-origin="829 3486" opacity="0.115"></use>
    <use href="#symb1" transform="rotate(356) translate(0 3204)" transform-origin="829 3504" opacity="0.11"></use>
    <use href="#symb1" transform="rotate(358) translate(0 3222)" transform-origin="829 3522" opacity="0.105"></use>
    <use href="#symb1" transform="rotate(360) translate(0 3240)" transform-origin="829 3540" opacity="0.1"></use>
    <use href="#symb1" transform="rotate(362) translate(0 3258)" transform-origin="829 3558" opacity="0.095"></use>
    <use href="#symb1" transform="rotate(364) translate(0 3276)" transform-origin="829 3576" opacity="0.09"></use>
    <use href="#symb1" transform="rotate(366) translate(0 3294)" transform-origin="829 3594" opacity="0.085"></use>
    <use href="#symb1" transform="rotate(368) translate(0 3312)" transform-origin="829 3612" opacity="0.08"></use>
    <use href="#symb1" transform="rotate(370) translate(0 3330)" transform-origin="829 3630" opacity="0.075"></use>
    <use href="#symb1" transform="rotate(372) translate(0 3348)" transform-origin="829 3648" opacity="0.07"></use>
    <use href="#symb1" transform="rotate(374) translate(0 3366)" transform-origin="829 3666" opacity="0.065"></use>
    <use href="#symb1" transform="rotate(376) translate(0 3384)" transform-origin="829 3684" opacity="0.06"></use>
    <use href="#symb1" transform="rotate(378) translate(0 3402)" transform-origin="829 3702" opacity="0.055"></use>
    <use href="#symb1" transform="rotate(380) translate(0 3420)" transform-origin="829 3720" opacity="0.05"></use>
    <use href="#symb1" transform="rotate(382) translate(0 3438)" transform-origin="829 3738" opacity="0.045"></use>
    <use href="#symb1" transform="rotate(384) translate(0 3456)" transform-origin="829 3756" opacity="0.04"></use>
    <use href="#symb1" transform="rotate(386) translate(0 3474)" transform-origin="829 3774" opacity="0.035"></use>
    <use href="#symb1" transform="rotate(388) translate(0 3492)" transform-origin="829 3792" opacity="0.03"></use>
    <use href="#symb1" transform="rotate(390) translate(0 3510)" transform-origin="829 3810" opacity="0.025"></use>
    <use href="#symb1" transform="rotate(392) translate(0 3528)" transform-origin="829 3828" opacity="0.02"></use>
    <use href="#symb1" transform="rotate(394) translate(0 3546)" transform-origin="829 3846" opacity="0.015"></use>
    <use href="#symb1" transform="rotate(396) translate(0 3564)" transform-origin="829 3864" opacity="0.01"></use>
  </g>
</svg>
