<?xml version="1.0" encoding="UTF-8" standalone="no"?>
<svg id="svg2" xmlns="http://www.w3.org/2000/svg" version="1.1" viewBox="0 0 2880 1710" fill="none">
  <defs>
    <linearGradient id="path2_lg" x1="1576" y1="-176.75" x2="1414.302" y2="400.4924" gradientUnits="userSpaceOnUse">
      <stop offset="0" stop-color="#0A81D1"></stop>
      <stop offset=".5" stop-color="#781EDC"></stop>
      <stop offset="1" stop-opacity="0.19" stop-color="#F25F5C"></stop>
    </linearGradient>
    <symbol id="symb2">
      <path style="stroke:url(#path2_lg);stroke-width:0.785" d="M1020.705 278.8l46.28 5.558c46.282 5.549 138.843 16.656 231.404-22.211 92.562-38.878 185.124-127.74 277.684-127.736 92.563-0.006 185.125 88.854 277.687 77.745 92.562-11.109 185.119-122.179 231.407-177.717l46.278-55.54"></path>
    </symbol>
  </defs>
  <g id="g2" transform="rotate(77.5)" transform-origin="1571 842" opacity="1">
    <use href="#symb2" transform="rotate(0) translate(0 -360)" transform-origin="1571 -195" opacity="1"></use>
    <use href="#symb2" transform="rotate(1) translate(0 -349)" transform-origin="1571 -184" opacity="0.995"></use>
    <use href="#symb2" transform="rotate(2) translate(0 -338)" transform-origin="1571 -173" opacity="0.99"></use>
    <use href="#symb2" transform="rotate(3) translate(0 -327)" transform-origin="1571 -162" opacity="0.985"></use>
    <use href="#symb2" transform="rotate(4) translate(0 -316)" transform-origin="1571 -151" opacity="0.98"></use>
    <use href="#symb2" transform="rotate(5) translate(0 -305)" transform-origin="1571 -140" opacity="0.975"></use>
    <use href="#symb2" transform="rotate(6) translate(0 -294)" transform-origin="1571 -129" opacity="0.97"></use>
    <use href="#symb2" transform="rotate(7) translate(0 -283)" transform-origin="1571 -118" opacity="0.965"></use>
    <use href="#symb2" transform="rotate(8) translate(0 -272)" transform-origin="1571 -107" opacity="0.96"></use>
    <use href="#symb2" transform="rotate(9) translate(0 -261)" transform-origin="1571 -96" opacity="0.955"></use>
    <use href="#symb2" transform="rotate(10) translate(0 -250)" transform-origin="1571 -85" opacity="0.95"></use>
    <use href="#symb2" transform="rotate(11) translate(0 -239)" transform-origin="1571 -74" opacity="0.945"></use>
    <use href="#symb2" transform="rotate(12) translate(0 -228)" transform-origin="1571 -63" opacity="0.94"></use>
    <use href="#symb2" transform="rotate(13) translate(0 -217)" transform-origin="1571 -52" opacity="0.935"></use>
    <use href="#symb2" transform="rotate(14) translate(0 -206)" transform-origin="1571 -41" opacity="0.93"></use>
    <use href="#symb2" transform="rotate(15) translate(0 -195)" transform-origin="1571 -30" opacity="0.925"></use>
    <use href="#symb2" transform="rotate(16) translate(0 -184)" transform-origin="1571 -19" opacity="0.92"></use>
    <use href="#symb2" transform="rotate(17) translate(0 -173)" transform-origin="1571 -8" opacity="0.915"></use>
    <use href="#symb2" transform="rotate(18) translate(0 -162)" transform-origin="1571 3" opacity="0.91"></use>
    <use href="#symb2" transform="rotate(19) translate(0 -151)" transform-origin="1571 14" opacity="0.905"></use>
    <use href="#symb2" transform="rotate(20) translate(0 -140)" transform-origin="1571 25" opacity="0.9"></use>
    <use href="#symb2" transform="rotate(21) translate(0 -129)" transform-origin="1571 36" opacity="0.895"></use>
    <use href="#symb2" transform="rotate(22) translate(0 -118)" transform-origin="1571 47" opacity="0.89"></use>
    <use href="#symb2" transform="rotate(23) translate(0 -107)" transform-origin="1571 58" opacity="0.885"></use>
    <use href="#symb2" transform="rotate(24) translate(0 -96)" transform-origin="1571 69" opacity="0.88"></use>
    <use href="#symb2" transform="rotate(25) translate(0 -85)" transform-origin="1571 80" opacity="0.875"></use>
    <use href="#symb2" transform="rotate(26) translate(0 -74)" transform-origin="1571 91" opacity="0.87"></use>
    <use href="#symb2" transform="rotate(27) translate(0 -63)" transform-origin="1571 102" opacity="0.865"></use>
    <use href="#symb2" transform="rotate(28) translate(0 -52)" transform-origin="1571 113" opacity="0.86"></use>
    <use href="#symb2" transform="rotate(29) translate(0 -41)" transform-origin="1571 124" opacity="0.855"></use>
    <use href="#symb2" transform="rotate(30) translate(0 -30)" transform-origin="1571 135" opacity="0.85"></use>
    <use href="#symb2" transform="rotate(31) translate(0 -19)" transform-origin="1571 146" opacity="0.845"></use>
    <use href="#symb2" transform="rotate(32) translate(0 -8)" transform-origin="1571 157" opacity="0.84"></use>
    <use href="#symb2" transform="rotate(33) translate(0 3)" transform-origin="1571 168" opacity="0.835"></use>
    <use href="#symb2" transform="rotate(34) translate(0 14)" transform-origin="1571 179" opacity="0.83"></use>
    <use href="#symb2" transform="rotate(35) translate(0 25)" transform-origin="1571 190" opacity="0.825"></use>
    <use href="#symb2" transform="rotate(36) translate(0 36)" transform-origin="1571 201" opacity="0.82"></use>
    <use href="#symb2" transform="rotate(37) translate(0 47)" transform-origin="1571 212" opacity="0.815"></use>
    <use href="#symb2" transform="rotate(38) translate(0 58)" transform-origin="1571 223" opacity="0.81"></use>
    <use href="#symb2" transform="rotate(39) translate(0 69)" transform-origin="1571 234" opacity="0.805"></use>
    <use href="#symb2" transform="rotate(40) translate(0 80)" transform-origin="1571 245" opacity="0.8"></use>
    <use href="#symb2" transform="rotate(41) translate(0 91)" transform-origin="1571 256" opacity="0.795"></use>
    <use href="#symb2" transform="rotate(42) translate(0 102)" transform-origin="1571 267" opacity="0.79"></use>
    <use href="#symb2" transform="rotate(43) translate(0 113)" transform-origin="1571 278" opacity="0.785"></use>
    <use href="#symb2" transform="rotate(44) translate(0 124)" transform-origin="1571 289" opacity="0.78"></use>
    <use href="#symb2" transform="rotate(45) translate(0 135)" transform-origin="1571 300" opacity="0.775"></use>
    <use href="#symb2" transform="rotate(46) translate(0 146)" transform-origin="1571 311" opacity="0.77"></use>
    <use href="#symb2" transform="rotate(47) translate(0 157)" transform-origin="1571 322" opacity="0.765"></use>
    <use href="#symb2" transform="rotate(48) translate(0 168)" transform-origin="1571 333" opacity="0.76"></use>
    <use href="#symb2" transform="rotate(49) translate(0 179)" transform-origin="1571 344" opacity="0.755"></use>
    <use href="#symb2" transform="rotate(50) translate(0 190)" transform-origin="1571 355" opacity="0.75"></use>
    <use href="#symb2" transform="rotate(51) translate(0 201)" transform-origin="1571 366" opacity="0.745"></use>
    <use href="#symb2" transform="rotate(52) translate(0 212)" transform-origin="1571 377" opacity="0.74"></use>
    <use href="#symb2" transform="rotate(53) translate(0 223)" transform-origin="1571 388" opacity="0.735"></use>
    <use href="#symb2" transform="rotate(54) translate(0 234)" transform-origin="1571 399" opacity="0.73"></use>
    <use href="#symb2" transform="rotate(55) translate(0 245)" transform-origin="1571 410" opacity="0.725"></use>
    <use href="#symb2" transform="rotate(56) translate(0 256)" transform-origin="1571 421" opacity="0.72"></use>
    <use href="#symb2" transform="rotate(57) translate(0 267)" transform-origin="1571 432" opacity="0.715"></use>
    <use href="#symb2" transform="rotate(58) translate(0 278)" transform-origin="1571 443" opacity="0.71"></use>
    <use href="#symb2" transform="rotate(59) translate(0 289)" transform-origin="1571 454" opacity="0.705"></use>
    <use href="#symb2" transform="rotate(60) translate(0 300)" transform-origin="1571 465" opacity="0.7"></use>
    <use href="#symb2" transform="rotate(61) translate(0 311)" transform-origin="1571 476" opacity="0.695"></use>
    <use href="#symb2" transform="rotate(62) translate(0 322)" transform-origin="1571 487" opacity="0.69"></use>
    <use href="#symb2" transform="rotate(63) translate(0 333)" transform-origin="1571 498" opacity="0.685"></use>
    <use href="#symb2" transform="rotate(64) translate(0 344)" transform-origin="1571 509" opacity="0.68"></use>
    <use href="#symb2" transform="rotate(65) translate(0 355)" transform-origin="1571 520" opacity="0.675"></use>
    <use href="#symb2" transform="rotate(66) translate(0 366)" transform-origin="1571 531" opacity="0.67"></use>
    <use href="#symb2" transform="rotate(67) translate(0 377)" transform-origin="1571 542" opacity="0.665"></use>
    <use href="#symb2" transform="rotate(68) translate(0 388)" transform-origin="1571 553" opacity="0.66"></use>
    <use href="#symb2" transform="rotate(69) translate(0 399)" transform-origin="1571 564" opacity="0.655"></use>
    <use href="#symb2" transform="rotate(70) translate(0 410)" transform-origin="1571 575" opacity="0.65"></use>
    <use href="#symb2" transform="rotate(71) translate(0 421)" transform-origin="1571 586" opacity="0.645"></use>
    <use href="#symb2" transform="rotate(72) translate(0 432)" transform-origin="1571 597" opacity="0.64"></use>
    <use href="#symb2" transform="rotate(73) translate(0 443)" transform-origin="1571 608" opacity="0.635"></use>
    <use href="#symb2" transform="rotate(74) translate(0 454)" transform-origin="1571 619" opacity="0.63"></use>
    <use href="#symb2" transform="rotate(75) translate(0 465)" transform-origin="1571 630" opacity="0.625"></use>
    <use href="#symb2" transform="rotate(76) translate(0 476)" transform-origin="1571 641" opacity="0.62"></use>
    <use href="#symb2" transform="rotate(77) translate(0 487)" transform-origin="1571 652" opacity="0.615"></use>
    <use href="#symb2" transform="rotate(78) translate(0 498)" transform-origin="1571 663" opacity="0.61"></use>
    <use href="#symb2" transform="rotate(79) translate(0 509)" transform-origin="1571 674" opacity="0.605"></use>
    <use href="#symb2" transform="rotate(80) translate(0 520)" transform-origin="1571 685" opacity="0.6"></use>
    <use href="#symb2" transform="rotate(81) translate(0 531)" transform-origin="1571 696" opacity="0.595"></use>
    <use href="#symb2" transform="rotate(82) translate(0 542)" transform-origin="1571 707" opacity="0.59"></use>
    <use href="#symb2" transform="rotate(83) translate(0 553)" transform-origin="1571 718" opacity="0.585"></use>
    <use href="#symb2" transform="rotate(84) translate(0 564)" transform-origin="1571 729" opacity="0.58"></use>
    <use href="#symb2" transform="rotate(85) translate(0 575)" transform-origin="1571 740" opacity="0.575"></use>
    <use href="#symb2" transform="rotate(86) translate(0 586)" transform-origin="1571 751" opacity="0.57"></use>
    <use href="#symb2" transform="rotate(87) translate(0 597)" transform-origin="1571 762" opacity="0.565"></use>
    <use href="#symb2" transform="rotate(88) translate(0 608)" transform-origin="1571 773" opacity="0.56"></use>
    <use href="#symb2" transform="rotate(89) translate(0 619)" transform-origin="1571 784" opacity="0.555"></use>
    <use href="#symb2" transform="rotate(90) translate(0 630)" transform-origin="1571 795" opacity="0.55"></use>
    <use href="#symb2" transform="rotate(91) translate(0 641)" transform-origin="1571 806" opacity="0.545"></use>
    <use href="#symb2" transform="rotate(92) translate(0 652)" transform-origin="1571 817" opacity="0.54"></use>
    <use href="#symb2" transform="rotate(93) translate(0 663)" transform-origin="1571 828" opacity="0.535"></use>
    <use href="#symb2" transform="rotate(94) translate(0 674)" transform-origin="1571 839" opacity="0.53"></use>
    <use href="#symb2" transform="rotate(95) translate(0 685)" transform-origin="1571 850" opacity="0.525"></use>
    <use href="#symb2" transform="rotate(96) translate(0 696)" transform-origin="1571 861" opacity="0.52"></use>
    <use href="#symb2" transform="rotate(97) translate(0 707)" transform-origin="1571 872" opacity="0.515"></use>
    <use href="#symb2" transform="rotate(98) translate(0 718)" transform-origin="1571 883" opacity="0.51"></use>
    <use href="#symb2" transform="rotate(99) translate(0 729)" transform-origin="1571 894" opacity="0.505"></use>
    <use href="#symb2" transform="rotate(100) translate(0 740)" transform-origin="1571 905" opacity="0.5"></use>
    <use href="#symb2" transform="rotate(101) translate(0 751)" transform-origin="1571 916" opacity="0.495"></use>
    <use href="#symb2" transform="rotate(102) translate(0 762)" transform-origin="1571 927" opacity="0.49"></use>
    <use href="#symb2" transform="rotate(103) translate(0 773)" transform-origin="1571 938" opacity="0.485"></use>
    <use href="#symb2" transform="rotate(104) translate(0 784)" transform-origin="1571 949" opacity="0.48"></use>
    <use href="#symb2" transform="rotate(105) translate(0 795)" transform-origin="1571 960" opacity="0.475"></use>
    <use href="#symb2" transform="rotate(106) translate(0 806)" transform-origin="1571 971" opacity="0.47"></use>
    <use href="#symb2" transform="rotate(107) translate(0 817)" transform-origin="1571 982" opacity="0.465"></use>
    <use href="#symb2" transform="rotate(108) translate(0 828)" transform-origin="1571 993" opacity="0.46"></use>
    <use href="#symb2" transform="rotate(109) translate(0 839)" transform-origin="1571 1004" opacity="0.455"></use>
    <use href="#symb2" transform="rotate(110) translate(0 850)" transform-origin="1571 1015" opacity="0.45"></use>
    <use href="#symb2" transform="rotate(111) translate(0 861)" transform-origin="1571 1026" opacity="0.445"></use>
    <use href="#symb2" transform="rotate(112) translate(0 872)" transform-origin="1571 1037" opacity="0.44"></use>
    <use href="#symb2" transform="rotate(113) translate(0 883)" transform-origin="1571 1048" opacity="0.435"></use>
    <use href="#symb2" transform="rotate(114) translate(0 894)" transform-origin="1571 1059" opacity="0.43"></use>
    <use href="#symb2" transform="rotate(115) translate(0 905)" transform-origin="1571 1070" opacity="0.425"></use>
    <use href="#symb2" transform="rotate(116) translate(0 916)" transform-origin="1571 1081" opacity="0.42"></use>
    <use href="#symb2" transform="rotate(117) translate(0 927)" transform-origin="1571 1092" opacity="0.415"></use>
    <use href="#symb2" transform="rotate(118) translate(0 938)" transform-origin="1571 1103" opacity="0.41"></use>
    <use href="#symb2" transform="rotate(119) translate(0 949)" transform-origin="1571 1114" opacity="0.405"></use>
    <use href="#symb2" transform="rotate(120) translate(0 960)" transform-origin="1571 1125" opacity="0.4"></use>
    <use href="#symb2" transform="rotate(121) translate(0 971)" transform-origin="1571 1136" opacity="0.395"></use>
    <use href="#symb2" transform="rotate(122) translate(0 982)" transform-origin="1571 1147" opacity="0.39"></use>
    <use href="#symb2" transform="rotate(123) translate(0 993)" transform-origin="1571 1158" opacity="0.385"></use>
    <use href="#symb2" transform="rotate(124) translate(0 1004)" transform-origin="1571 1169" opacity="0.38"></use>
    <use href="#symb2" transform="rotate(125) translate(0 1015)" transform-origin="1571 1180" opacity="0.375"></use>
    <use href="#symb2" transform="rotate(126) translate(0 1026)" transform-origin="1571 1191" opacity="0.37"></use>
    <use href="#symb2" transform="rotate(127) translate(0 1037)" transform-origin="1571 1202" opacity="0.365"></use>
    <use href="#symb2" transform="rotate(128) translate(0 1048)" transform-origin="1571 1213" opacity="0.36"></use>
    <use href="#symb2" transform="rotate(129) translate(0 1059)" transform-origin="1571 1224" opacity="0.355"></use>
    <use href="#symb2" transform="rotate(130) translate(0 1070)" transform-origin="1571 1235" opacity="0.35"></use>
    <use href="#symb2" transform="rotate(131) translate(0 1081)" transform-origin="1571 1246" opacity="0.345"></use>
    <use href="#symb2" transform="rotate(132) translate(0 1092)" transform-origin="1571 1257" opacity="0.34"></use>
    <use href="#symb2" transform="rotate(133) translate(0 1103)" transform-origin="1571 1268" opacity="0.335"></use>
    <use href="#symb2" transform="rotate(134) translate(0 1114)" transform-origin="1571 1279" opacity="0.33"></use>
    <use href="#symb2" transform="rotate(135) translate(0 1125)" transform-origin="1571 1290" opacity="0.325"></use>
    <use href="#symb2" transform="rotate(136) translate(0 1136)" transform-origin="1571 1301" opacity="0.32"></use>
    <use href="#symb2" transform="rotate(137) translate(0 1147)" transform-origin="1571 1312" opacity="0.315"></use>
    <use href="#symb2" transform="rotate(138) translate(0 1158)" transform-origin="1571 1323" opacity="0.31"></use>
    <use href="#symb2" transform="rotate(139) translate(0 1169)" transform-origin="1571 1334" opacity="0.305"></use>
    <use href="#symb2" transform="rotate(140) translate(0 1180)" transform-origin="1571 1345" opacity="0.3"></use>
    <use href="#symb2" transform="rotate(141) translate(0 1191)" transform-origin="1571 1356" opacity="0.295"></use>
    <use href="#symb2" transform="rotate(142) translate(0 1202)" transform-origin="1571 1367" opacity="0.29"></use>
    <use href="#symb2" transform="rotate(143) translate(0 1213)" transform-origin="1571 1378" opacity="0.285"></use>
    <use href="#symb2" transform="rotate(144) translate(0 1224)" transform-origin="1571 1389" opacity="0.28"></use>
    <use href="#symb2" transform="rotate(145) translate(0 1235)" transform-origin="1571 1400" opacity="0.275"></use>
    <use href="#symb2" transform="rotate(146) translate(0 1246)" transform-origin="1571 1411" opacity="0.27"></use>
    <use href="#symb2" transform="rotate(147) translate(0 1257)" transform-origin="1571 1422" opacity="0.265"></use>
    <use href="#symb2" transform="rotate(148) translate(0 1268)" transform-origin="1571 1433" opacity="0.26"></use>
    <use href="#symb2" transform="rotate(149) translate(0 1279)" transform-origin="1571 1444" opacity="0.255"></use>
    <use href="#symb2" transform="rotate(150) translate(0 1290)" transform-origin="1571 1455" opacity="0.25"></use>
    <use href="#symb2" transform="rotate(151) translate(0 1301)" transform-origin="1571 1466" opacity="0.245"></use>
    <use href="#symb2" transform="rotate(152) translate(0 1312)" transform-origin="1571 1477" opacity="0.24"></use>
    <use href="#symb2" transform="rotate(153) translate(0 1323)" transform-origin="1571 1488" opacity="0.235"></use>
    <use href="#symb2" transform="rotate(154) translate(0 1334)" transform-origin="1571 1499" opacity="0.23"></use>
    <use href="#symb2" transform="rotate(155) translate(0 1345)" transform-origin="1571 1510" opacity="0.225"></use>
    <use href="#symb2" transform="rotate(156) translate(0 1356)" transform-origin="1571 1521" opacity="0.22"></use>
    <use href="#symb2" transform="rotate(157) translate(0 1367)" transform-origin="1571 1532" opacity="0.215"></use>
    <use href="#symb2" transform="rotate(158) translate(0 1378)" transform-origin="1571 1543" opacity="0.21"></use>
    <use href="#symb2" transform="rotate(159) translate(0 1389)" transform-origin="1571 1554" opacity="0.205"></use>
    <use href="#symb2" transform="rotate(160) translate(0 1400)" transform-origin="1571 1565" opacity="0.2"></use>
    <use href="#symb2" transform="rotate(161) translate(0 1411)" transform-origin="1571 1576" opacity="0.195"></use>
    <use href="#symb2" transform="rotate(162) translate(0 1422)" transform-origin="1571 1587" opacity="0.19"></use>
    <use href="#symb2" transform="rotate(163) translate(0 1433)" transform-origin="1571 1598" opacity="0.185"></use>
    <use href="#symb2" transform="rotate(164) translate(0 1444)" transform-origin="1571 1609" opacity="0.18"></use>
    <use href="#symb2" transform="rotate(165) translate(0 1455)" transform-origin="1571 1620" opacity="0.175"></use>
    <use href="#symb2" transform="rotate(166) translate(0 1466)" transform-origin="1571 1631" opacity="0.17"></use>
    <use href="#symb2" transform="rotate(167) translate(0 1477)" transform-origin="1571 1642" opacity="0.165"></use>
    <use href="#symb2" transform="rotate(168) translate(0 1488)" transform-origin="1571 1653" opacity="0.16"></use>
    <use href="#symb2" transform="rotate(169) translate(0 1499)" transform-origin="1571 1664" opacity="0.155"></use>
    <use href="#symb2" transform="rotate(170) translate(0 1510)" transform-origin="1571 1675" opacity="0.15"></use>
    <use href="#symb2" transform="rotate(171) translate(0 1521)" transform-origin="1571 1686" opacity="0.145"></use>
    <use href="#symb2" transform="rotate(172) translate(0 1532)" transform-origin="1571 1697" opacity="0.14"></use>
    <use href="#symb2" transform="rotate(173) translate(0 1543)" transform-origin="1571 1708" opacity="0.135"></use>
    <use href="#symb2" transform="rotate(174) translate(0 1554)" transform-origin="1571 1719" opacity="0.13"></use>
    <use href="#symb2" transform="rotate(175) translate(0 1565)" transform-origin="1571 1730" opacity="0.125"></use>
    <use href="#symb2" transform="rotate(176) translate(0 1576)" transform-origin="1571 1741" opacity="0.12"></use>
    <use href="#symb2" transform="rotate(177) translate(0 1587)" transform-origin="1571 1752" opacity="0.115"></use>
    <use href="#symb2" transform="rotate(178) translate(0 1598)" transform-origin="1571 1763" opacity="0.11"></use>
    <use href="#symb2" transform="rotate(179) translate(0 1609)" transform-origin="1571 1774" opacity="0.105"></use>
    <use href="#symb2" transform="rotate(180) translate(0 1620)" transform-origin="1571 1785" opacity="0.1"></use>
    <use href="#symb2" transform="rotate(181) translate(0 1631)" transform-origin="1571 1796" opacity="0.095"></use>
    <use href="#symb2" transform="rotate(182) translate(0 1642)" transform-origin="1571 1807" opacity="0.09"></use>
    <use href="#symb2" transform="rotate(183) translate(0 1653)" transform-origin="1571 1818" opacity="0.085"></use>
    <use href="#symb2" transform="rotate(184) translate(0 1664)" transform-origin="1571 1829" opacity="0.08"></use>
    <use href="#symb2" transform="rotate(185) translate(0 1675)" transform-origin="1571 1840" opacity="0.075"></use>
    <use href="#symb2" transform="rotate(186) translate(0 1686)" transform-origin="1571 1851" opacity="0.07"></use>
    <use href="#symb2" transform="rotate(187) translate(0 1697)" transform-origin="1571 1862" opacity="0.065"></use>
    <use href="#symb2" transform="rotate(188) translate(0 1708)" transform-origin="1571 1873" opacity="0.06"></use>
    <use href="#symb2" transform="rotate(189) translate(0 1719)" transform-origin="1571 1884" opacity="0.055"></use>
    <use href="#symb2" transform="rotate(190) translate(0 1730)" transform-origin="1571 1895" opacity="0.05"></use>
    <use href="#symb2" transform="rotate(191) translate(0 1741)" transform-origin="1571 1906" opacity="0.045"></use>
    <use href="#symb2" transform="rotate(192) translate(0 1752)" transform-origin="1571 1917" opacity="0.04"></use>
    <use href="#symb2" transform="rotate(193) translate(0 1763)" transform-origin="1571 1928" opacity="0.035"></use>
    <use href="#symb2" transform="rotate(194) translate(0 1774)" transform-origin="1571 1939" opacity="0.03"></use>
    <use href="#symb2" transform="rotate(195) translate(0 1785)" transform-origin="1571 1950" opacity="0.025"></use>
    <use href="#symb2" transform="rotate(196) translate(0 1796)" transform-origin="1571 1961" opacity="0.02"></use>
    <use href="#symb2" transform="rotate(197) translate(0 1807)" transform-origin="1571 1972" opacity="0.015"></use>
    <use href="#symb2" transform="rotate(198) translate(0 1818)" transform-origin="1571 1983" opacity="0.01"></use>
  </g>
</svg>
